<svg fill="#fff" xmlns="http://www.w3.org/2000/svg" xmlns:xlink="http://www.w3.org/1999/xlink" viewBox="0 0 605 136" fill-rule="evenodd" stroke-linejoin="round" stroke-miterlimit="2" xmlns:v="https://vecta.io/nano"><g fill-rule="nonzero"><use xlink:href="#B"/><path d="M87.926 71.767c0-6.912 1.008-13.248 3.024-19.44 2.016-6.048 4.752-11.664 8.208-16.704a73.71 73.71 0 0 1 11.952-13.824c4.464-4.176 9.216-7.632 14.256-10.368 4.896-2.88 9.936-5.04 14.976-6.624 5.04-1.44 9.936-2.304 14.544-2.304 4.032 0 7.92.576 11.664 1.44 3.6 1.008 6.912 2.448 9.792 4.32a24.51 24.51 0 0 1 7.2 7.2c1.872 3.024 3.168 6.48 3.888 10.368v.576.72c0 1.872-.432 3.168-1.584 4.176-1.008 1.008-2.16 1.44-3.312 1.44-1.44 0-2.592-.72-3.888-2.16-1.152-1.44-2.304-3.6-3.312-6.192-1.728-3.312-4.176-5.76-7.488-7.2a27.74 27.74 0 0 0-11.088-2.304c-3.6 0-7.488.72-11.376 2.016-4.032 1.296-7.92 3.168-11.808 5.616-3.888 2.304-7.488 5.184-11.088 8.496-3.456 3.456-6.624 7.056-9.216 11.232-2.736 4.032-4.752 8.352-6.336 13.104-1.584 4.608-2.448 9.504-2.448 14.544 0 4.176.576 7.632 1.584 10.512s2.448 5.184 4.032 6.912c1.728 1.872 3.6 3.168 5.76 3.888 2.16.864 4.176 1.152 6.336 1.152h.432c-.144-.432-.288-1.008-.288-1.584-.144-.432-.144-1.008-.144-1.44 0-1.008.144-1.872.432-2.736.432-.72.864-1.44 1.44-2.016.576-.432 1.296-.864 2.016-1.152.864-.288 1.584-.432 2.448-.432 1.44 0 2.88.432 4.176 1.44 1.296.864 2.304 2.304 2.88 4.176 4.176-2.88 7.776-6.048 10.8-9.792 2.88-3.6 5.184-7.776 7.056-12.384 1.728-4.752 3.024-9.936 3.744-15.84.864-5.904 1.296-12.528 1.296-19.872 0-2.592.576-4.464 1.584-5.616 1.152-1.296 2.448-1.872 3.888-1.872 1.584 0 2.88.432 3.744 1.44 1.008 1.008 1.728 2.448 2.304 4.032.576 1.728 1.008 3.6 1.152 5.76a48.98 48.98 0 0 1 .432 6.48c0 7.344-1.008 14.256-2.736 20.592s-4.176 12.096-7.344 17.28c-3.024 5.184-6.624 9.648-10.8 13.536s-8.496 6.912-13.248 9.072c.864 3.744 1.872 6.912 3.168 9.36 1.296 2.592 2.736 4.608 4.32 6.192s3.312 2.592 5.04 3.312c1.872.576 3.744 1.008 5.616 1.008 1.584 0 3.312-.288 4.896-.576s3.168-.864 4.608-1.44c1.44-.432 2.736-1.152 3.888-1.728 1.152-.72 2.016-1.44 2.736-2.016.288-.144.432-.288.72-.432.144-.144.432-.144.72-.144.72 0 1.44.288 2.016 1.008s.864 1.584.864 2.736c0 .864-.288 1.872-.864 2.88-.432 1.152-1.296 2.16-2.592 3.312-2.592 3.168-5.616 5.328-8.64 6.912-3.168 1.44-6.192 2.16-9.504 2.16a21.86 21.86 0 0 1-8.496-1.728c-2.88-1.296-5.472-3.024-8.064-5.472-2.448-2.448-4.752-5.472-6.912-9.072-2.016-3.6-3.888-7.776-5.328-12.528-1.008.144-2.016.288-3.024.288-1.008.144-2.016.144-3.024.144-4.032 0-7.92-.576-11.664-1.728-3.888-1.152-7.2-3.024-10.224-5.616-3.024-2.736-5.328-6.192-7.2-10.512-1.728-4.32-2.592-9.648-2.592-15.984zM206.019 8.695c1.152-2.448 2.592-4.032 4.032-4.896 1.584-.864 3.024-1.296 4.464-1.296.864 0 1.584.144 2.304.288s1.44.432 2.016.864 1.008.864 1.296 1.584.432 1.584.432 2.592c0 1.152-.144 2.592-.72 4.176s-1.296 3.456-2.592 5.76c-4.608 8.208-8.64 16.992-11.808 26.208s-5.76 18.432-7.632 27.504c-.144 1.296-.288 2.304-.288 3.456-.144 1.008-.144 2.016-.144 3.024 0 2.88.432 5.184 1.152 7.056.576 2.016 1.584 3.456 2.736 4.608 1.152 1.296 2.448 2.016 3.744 2.592 1.44.576 2.88.72 4.32.72 5.184 0 10.368-1.872 15.264-5.616 4.896-3.888 9.216-9.216 12.96-16.128 3.888-7.056 6.912-15.408 9.36-25.2 2.448-9.648 3.888-20.592 4.176-32.544.144-1.296.288-2.448.72-3.456.432-.864 1.008-1.728 1.584-2.304.72-.576 1.44-1.008 2.304-1.296.864-.432 1.728-.576 2.736-.576s2.016.432 2.736 1.296 1.296 1.872 1.728 3.312c.432 1.296.72 2.88.864 4.752.144 1.728.288 3.6.288 5.616 0 8.208-.864 16.128-2.304 23.616-1.584 7.344-3.6 14.256-6.336 20.592s-5.76 11.952-9.504 16.992c-3.6 5.04-7.488 9.36-11.808 12.816-4.32 3.6-8.784 6.336-13.392 8.208s-9.36 2.88-13.968 2.88c-3.024 0-5.904-.72-8.784-1.872s-5.616-3.024-7.92-5.328-4.32-5.184-5.76-8.64c-1.44-3.312-2.16-7.2-2.16-11.52 0-.72 0-1.584.144-2.448 0-.864.144-1.728.288-2.592.576-3.6 1.296-7.056 2.016-10.368s1.44-6.48 2.448-9.648c.864-3.168 2.016-6.336 3.168-9.504 1.152-3.312 2.448-6.768 4.032-10.368l5.184-11.376 6.624-13.536zm119.159 75.312c-.144.864-.432 1.872-.72 3.024s-.288 2.304-.288 3.312c0 .864.144 1.728.432 2.304.144.72.864 1.008 1.728 1.008 1.296 0 2.736-.432 4.608-1.296 1.728-1.008 3.6-2.16 5.616-3.744 2.016-1.44 4.032-3.168 6.192-5.184l6.48-6.192 6.048-6.48 5.184-6.048 2.592 9.36c-3.168 4.176-6.336 8.064-9.648 11.952-3.312 3.744-6.624 7.056-9.936 9.936-3.456 3.024-6.912 5.328-10.224 7.056-3.456 1.728-6.912 2.592-10.224 2.592-2.016 0-3.744-.288-5.04-1.008-1.44-.576-2.448-1.44-3.312-2.592s-1.584-2.304-1.872-3.744c-.432-1.44-.576-3.024-.576-4.608v-2.592c0-1.152.144-2.304.144-3.456.144-1.152.144-2.304.288-3.312v-1.872l-24.912 1.584-11.52.144c-2.016 4.176-4.032 8.064-5.904 11.232-.864 1.44-1.728 2.88-2.736 4.176-.864 1.44-1.872 2.592-2.736 3.6-1.008 1.152-1.872 2.016-2.88 2.592-.864.576-1.728 1.008-2.736 1.008a8.7 8.7 0 0 1-3.456-.72c-.864-.432-1.584-.864-2.016-1.584-.576-.576-.864-1.296-1.152-2.16-.144-.72-.288-1.44-.288-2.16 0-1.296.144-2.448.432-3.6.432-1.296.864-2.448 1.44-3.456l9.36-15.696c.432-.576 1.296-2.16 2.592-4.608 1.152-2.592 2.88-5.616 4.896-9.216s4.464-7.632 7.056-12.096c2.736-4.32 5.616-8.784 8.784-13.392 3.024-4.464 6.336-8.928 9.792-13.104 3.6-4.32 7.2-8.064 10.8-11.376 3.744-3.312 7.344-6.048 11.088-7.92 3.888-2.016 7.488-3.024 11.232-3.024 3.456 0 6.912 1.008 10.224 3.168s6.624 5.76 9.648 10.656c.288.72.432 1.296.432 1.728 0 .576-.144 1.152-.432 1.872-.288.576-.72 1.008-1.296 1.584-.576.432-1.152.864-1.872 1.152-.576.144-1.296.288-2.016.288-.864 0-1.728-.144-2.88-.432-1.152-.432-2.16-1.296-3.168-2.448-1.44-1.728-2.88-2.88-4.464-3.744-1.584-.72-3.168-1.152-4.752-1.152-2.16 0-4.464.72-6.768 1.872-2.304 1.296-4.608 3.024-6.912 5.04-2.304 2.16-4.608 4.608-6.912 7.488-2.304 2.736-4.464 5.616-6.624 8.784-2.16 3.024-4.32 6.192-6.336 9.504-2.016 3.168-3.888 6.336-5.616 9.216-1.872 3.024-3.456 5.76-4.896 8.208s-2.736 4.608-3.888 6.192h12.816l21.744-1.584c.432-.864 1.008-2.16 1.728-3.744l2.304-5.472 2.88-6.624 3.168-7.056 3.024-7.056 2.88-6.336c.72-1.872 1.584-3.024 2.736-3.888 1.152-.72 2.448-1.008 3.888-1.008.72 0 1.296 0 2.016.288.72.144 1.44.432 2.016 1.008.576.432 1.008 1.008 1.44 1.584.288.72.576 1.584.576 2.448s-.432 2.448-1.152 4.608-1.728 4.608-2.88 7.632c-1.296 2.88-2.592 6.048-4.032 9.36-1.44 3.456-3.024 6.768-4.32 10.224-1.44 3.456-2.88 6.624-4.032 9.792-1.296 3.168-2.16 5.904-2.88 8.208zm67.104-25.776c.288 0 .576.144.864.144h1.008c4.032 0 7.92-.864 11.52-2.736 3.6-1.728 6.912-3.888 9.504-6.624 2.736-2.736 4.896-5.76 6.48-9.072s2.304-6.624 2.304-9.792c0-2.16-.288-4.32-1.152-6.336s-2.16-3.744-3.888-5.328c-1.728-1.44-4.032-2.592-6.768-3.6-2.736-.864-6.048-1.296-9.792-1.296-4.32 0-7.92.432-10.944 1.152-3.168.864-5.76 1.872-8.064 3.168-2.16 1.296-4.032 2.736-5.616 4.32-1.44 1.728-2.736 3.312-3.888 5.04s-2.16 3.456-3.024 5.04c-.864 1.728-1.728 3.168-2.736 4.464s-2.016 2.304-3.168 3.024c-1.152.864-2.592 1.152-4.32 1.152-2.448 0-4.176-.576-5.328-1.728s-1.728-2.88-1.728-5.04c0-2.016.576-4.176 1.584-6.48 1.152-2.448 2.736-4.752 4.752-7.056a43.43 43.43 0 0 1 7.488-6.768c2.88-2.16 6.192-4.176 9.936-5.76 3.744-1.728 7.632-3.024 12.096-4.032 4.32-1.008 8.928-1.584 13.824-1.584 4.752 0 9.36.72 13.68 1.872 4.464 1.296 8.352 3.024 11.664 5.472 3.456 2.448 6.048 5.472 8.064 9.072 2.016 3.744 3.024 7.92 3.024 12.816 0 3.312-.576 6.48-1.872 9.36-1.152 3.024-2.736 5.76-4.752 8.352s-4.32 5.04-7.056 7.2-5.616 4.176-8.64 5.76c-3.024 1.728-6.192 3.168-9.36 4.32s-6.336 2.016-9.36 2.592c.432 2.16 1.152 4.608 2.16 7.344.864 2.736 2.016 5.328 3.456 7.92 1.44 2.448 2.88 4.464 4.608 6.192s3.456 2.736 5.328 2.88h1.008 1.008c3.456 0 6.48-.576 9.216-1.584 2.592-1.152 4.896-2.448 6.624-3.744 2.16-1.584 3.888-3.456 5.472-5.472 1.44-1.584 3.024-2.448 4.464-2.448a3.37 3.37 0 0 1 2.448 1.008c.576.576.864 1.584.864 2.592 0 1.152-.288 2.448-1.008 3.744-.576 1.44-1.728 3.024-3.456 4.464-4.752 4.608-9.504 7.92-14.112 10.08-4.608 2.016-9.072 3.024-13.104 3.024-3.456 0-6.48-.864-9.36-2.88-2.88-1.872-5.472-4.464-7.776-7.776-2.448-3.312-4.608-7.056-6.48-11.52-1.872-4.32-3.6-8.928-5.184-13.824l-2.592 6.768c-.864 2.592-1.728 5.328-2.88 8.064-1.008 2.736-2.016 5.472-3.168 8.208-1.152 2.592-2.448 5.04-3.744 7.2s-2.736 3.888-4.32 5.184-3.312 2.016-5.04 2.016c-1.584 0-2.736-.288-3.744-.72-.864-.576-1.584-1.152-2.16-1.872-.576-.576-.864-1.44-1.008-2.304-.288-.864-.432-1.584-.432-2.304 0-1.152.144-2.16.432-3.312s.72-2.16 1.296-3.168l20.736-38.016c1.728-3.168 3.456-6.192 5.328-9.216 1.728-3.024 3.6-5.616 5.328-7.92 1.584-2.304 3.312-4.176 4.752-5.472 1.584-1.44 2.88-2.16 4.176-2.16.288 0 .72.144 1.152.288.432 0 .864.288 1.296.576s.72.72 1.008 1.296.432 1.296.432 2.304c0 .864-.288 2.016-.864 3.6-.432 1.728-1.152 3.456-2.016 5.616l-2.88 6.768-3.6 7.488z"/><path d="M504.057 45.991c.864 0 1.584.144 2.304.288.576.144 1.296.432 1.872.72.576.432 1.008.72 1.296 1.296.288.432.432.864.432 1.296 0 .72-.432 1.584-1.296 2.304-1.008.72-2.592 1.44-4.896 2.16-2.304.576-5.328 1.152-9.216 1.584-3.744.432-8.64.576-14.4.576-3.168 0-6.336.432-9.36 1.296-3.168 1.008-5.904 2.16-8.352 3.888s-4.32 3.744-5.904 6.192-2.304 5.184-2.304 8.352c0 2.592.432 5.04 1.152 7.2.72 2.304 1.728 4.32 3.312 6.048 1.44 1.872 3.312 3.168 5.472 4.176 2.304 1.008 4.896 1.584 7.92 1.584 6.192 0 11.232-.432 15.408-1.152 4.032-.72 7.488-1.584 10.224-2.736 2.736-1.008 4.896-2.16 6.768-3.456l4.896-3.6c1.44-1.152 3.024-2.016 4.608-2.736 1.728-.72 3.744-1.152 6.192-1.152 1.872 0 3.456.576 4.608 1.44 1.152 1.008 1.728 2.448 1.728 4.176 0 1.296-.72 2.592-2.016 4.032-1.296 1.584-3.024 3.024-5.472 4.608-2.304 1.584-5.184 3.168-8.496 4.608s-7.056 2.736-11.088 3.888c-4.176 1.152-8.496 2.016-13.248 2.736-4.608.72-9.504 1.152-14.544 1.152-4.608 0-9.072-.72-13.104-1.872-4.032-1.296-7.632-3.168-10.656-5.616s-5.472-5.616-7.2-9.36c-1.872-3.744-2.736-8.064-2.736-13.104 0-4.32 1.008-8.208 3.024-11.808 2.016-3.456 4.608-6.624 8.064-9.216 3.312-2.736 7.344-4.896 11.808-6.624 4.608-1.728 9.36-3.024 14.544-3.6-4.032-3.024-6.768-5.904-8.352-8.784-1.584-2.736-2.448-5.616-2.448-8.352s.72-5.184 2.16-7.488c1.296-2.448 3.168-4.464 5.472-6.48 2.448-1.872 5.184-3.6 8.352-5.04s6.48-2.736 10.08-3.744 7.344-1.728 11.232-2.304 7.632-.864 11.376-.864c3.888 0 7.488.432 10.944 1.296 3.456.72 6.624 2.016 9.216 3.744 2.736 1.584 5.04 3.744 6.768 6.336s2.736 5.616 3.168 9.072c0 1.008-.288 2.016-.72 3.024-.432 1.152-1.152 2.016-2.16 2.88s-2.16 1.584-3.456 2.16c-1.44.576-3.024.864-4.896.864-1.008 0-1.728-.144-2.304-.432s-1.008-.576-1.296-1.008c-.432-.432-.576-.864-.576-1.44-.144-.576-.144-1.296-.144-2.016 0-2.16-.288-4.032-.72-5.616-.576-1.584-1.44-2.88-2.592-3.888-1.296-1.008-2.736-1.872-4.752-2.304-1.872-.432-4.32-.72-7.2-.72a56.54 56.54 0 0 0-10.656 1.008c-3.6.864-7.056 1.872-10.224 3.168-3.024 1.44-5.616 3.168-7.632 5.04-1.872 1.872-2.88 4.032-2.88 6.48 0 2.736.576 5.184 1.872 7.2s3.024 3.744 5.184 5.04c2.16 1.152 4.608 2.16 7.344 2.736s5.616.864 8.496.864z"/><use xlink:href="#B" x="520.523"/></g><defs ><path id="B" d="M26.584 64.855c1.44 0 2.448.576 3.024 1.728.576 1.008 1.008 2.304 1.008 3.744a5.37 5.37 0 0 1-.288 1.728c-.144.576-.432 1.008-.864 1.44s-1.008.864-1.584 1.296c-.72.432-1.728.864-2.88 1.296-2.592 1.152-4.608 2.448-6.048 4.032-1.584 1.584-2.304 3.168-2.304 4.752 0 1.008.288 1.872 1.008 2.736.576.864 1.584 1.728 3.024 2.448 1.44.576 3.312 1.152 5.472 1.584 2.304.432 4.896.576 8.064.576s6.336-.432 9.216-1.152 5.472-1.872 7.632-3.312 3.888-3.024 5.184-4.896c1.296-2.016 1.872-4.032 1.872-6.336 0-1.728-.576-3.456-2.016-5.328-1.44-1.728-3.6-3.6-6.768-5.616l-12.24-8.496-5.184-4.032c-3.456-3.168-6.048-6.192-7.776-9.072-1.728-2.736-2.592-5.76-2.592-8.928 0-2.736.576-5.616 2.016-8.352s3.312-5.184 5.616-7.632a53.51 53.51 0 0 1 8.064-6.624c3.168-2.016 6.336-3.744 9.648-5.184s6.768-2.592 10.08-3.456c3.456-.864 6.624-1.296 9.792-1.296 2.304 0 4.32.288 6.336.864 1.872.432 3.6 1.296 5.04 2.448 1.44 1.008 2.592 2.448 3.456 4.176s1.152 3.888 1.152 6.336c0 3.456-1.008 6.768-3.024 9.936-2.016 3.312-5.04 6.192-9.216 8.928-1.728 1.296-3.456 2.016-5.04 2.016s-2.88-.576-3.744-1.728c-1.008-1.152-1.44-2.592-1.44-4.032s.432-2.736 1.152-4.032c.864-1.296 2.016-2.448 3.744-3.312 1.44-.72 2.592-1.728 3.6-2.88 1.152-1.152 1.584-2.304 1.584-3.456s-.288-1.728-1.008-2.16c-.72-.288-1.584-.432-2.592-.432-2.016 0-4.176.288-6.48.72s-4.608 1.152-6.912 2.016c-2.448.864-4.608 1.872-6.768 3.024s-4.176 2.448-5.76 3.744c-1.728 1.44-3.024 2.88-4.032 4.32-1.008 1.584-1.584 3.024-1.584 4.608 0 1.008.288 2.016.72 2.88a9.76 9.76 0 0 0 1.872 2.592c.72 1.008 1.728 1.872 2.88 2.88 1.296.864 2.592 2.016 4.176 3.024l16.416 12.24c2.16 1.584 4.032 3.024 5.616 4.464 1.728 1.584 3.168 3.024 4.176 4.464 1.152 1.44 2.016 3.024 2.592 4.464.72 1.44 1.008 3.168 1.008 4.752 0 3.744-1.008 7.488-3.024 11.088-1.872 3.6-4.608 6.768-8.208 9.504-3.6 2.88-7.92 5.184-12.96 6.912s-10.656 2.592-16.704 2.592c-5.76 0-10.656-.432-14.688-1.44-4.032-.864-7.2-2.16-9.792-3.744s-4.464-3.312-5.616-5.328c-1.296-2.016-1.872-4.176-1.872-6.48s.72-4.752 1.872-7.056c1.152-2.448 2.88-4.752 5.04-6.912s4.752-4.032 7.776-5.76a40.64 40.64 0 0 1 10.08-3.888z"/></defs></svg>