<svg xmlns="http://www.w3.org/2000/svg" viewBox="0 0 511 131"  fill-rule="nonzero" stroke-linejoin="round" stroke-miterlimit="2" xmlns:v="https://vecta.io/nano"><path d="M30.204 85.212c11.52 0 17.28-4.608 17.28-13.824 0-4.752-2.592-8.352-7.632-10.656-2.736-1.296-6.192-2.592-10.512-3.744-4.176-1.152-7.776-2.304-10.512-3.6-2.88-1.152-5.76-2.736-8.64-4.896-5.616-4.176-8.496-10.8-8.496-19.584s3.024-15.696 9.216-20.736C16.956 3.132 24.876.684 34.812.684c9.792 0 18.864 2.016 27.36 5.904v21.6l-14.688 1.008v-8.352c0-1.44-.144-2.448-.576-3.168-1.008-1.872-4.464-2.736-10.224-2.736-5.616 0-9.792 1.008-12.528 3.024s-4.176 5.184-4.176 9.36c0 3.024 1.152 5.76 3.456 8.064 1.584 1.584 3.888 2.736 6.912 3.888 3.024.864 6.192 2.016 9.648 3.024 3.312 1.008 6.336 2.16 9.072 3.456 2.592 1.296 5.328 3.024 8.208 5.184 5.904 4.32 8.784 10.944 8.784 20.016s-3.168 16.128-9.648 21.312-15.12 7.776-25.632 7.776c-10.656 0-20.16-2.016-28.656-5.904V71.388l14.688-1.008v8.784c0 1.44.144 2.448.576 3.168s1.584 1.296 3.6 1.872c1.872.72 5.04 1.008 9.216 1.008zm93.312 26.64V91.98c-4.608 5.328-10.656 8.064-18 8.064s-13.248-1.872-17.712-5.472c-4.32-3.744-7.344-8.064-8.928-13.104s-2.448-10.512-2.448-16.416c0-13.968 3.312-24.48 10.08-31.248 6.624-6.768 15.696-10.224 27.072-10.224 9.36 0 18.288 1.728 26.64 5.328v87.12l8.352.432v11.52H110.7v-10.944l8.496-.432c1.44-.144 2.592-.432 3.312-1.152s1.008-1.872 1.008-3.6zm-.144-37.296v-36.72c-3.312-1.152-7.056-1.728-11.376-1.728-5.76 0-10.224 2.448-13.248 7.344-3.024 5.04-4.608 11.376-4.608 19.296 0 11.664 2.304 19.152 7.056 22.464 2.16 1.44 5.04 2.16 8.784 2.16s6.912-1.152 9.504-3.312 3.888-5.328 3.888-9.504zm104.832 12.24v11.376h-23.328v-9.36c-5.328 7.488-13.104 11.232-23.328 11.232-14.832 0-22.32-8.352-22.32-24.912V41.868c0-2.592-1.152-3.888-3.6-4.032l-4.608-.288V25.74h25.344v45.648c0 5.04.72 8.928 2.16 11.52s4.464 3.888 8.928 3.888 8.208-1.44 10.944-4.176 4.032-6.192 4.032-10.08V42.156c0-1.584-.288-2.592-.72-3.168-.576-.72-1.584-1.008-2.88-1.152l-4.608-.288V25.74h25.344v56.448c0 1.584.288 2.592.72 3.024.432.576 1.44 1.008 2.88 1.152l5.04.432zm73.44-58.176v53.568c0 1.584.288 2.592.864 3.168.432.576 1.44.864 2.736 1.008l4.608.288v11.52h-22.896V89.82l-.432-.144c-4.752 6.912-11.376 10.368-19.728 10.368-9.792 0-16.992-3.168-21.744-9.36s-7.056-14.832-7.056-25.632c0-13.104 3.168-23.184 9.504-30.528s15.84-10.944 28.512-10.944c8.208 0 16.704 1.728 25.632 5.04zM284.94 75.276V37.98c-2.736-1.296-6.336-1.872-11.088-1.872-6.48 0-11.088 2.592-13.968 7.776s-4.32 12.096-4.32 20.592c0 15.552 5.04 23.328 14.976 23.328 4.176 0 7.632-1.296 10.368-3.888 2.736-2.448 4.032-5.328 4.032-8.64zm42.624 6.768V42.156c0-1.584-.288-2.592-.72-3.168-.576-.72-1.584-1.008-2.88-1.152l-6.048-.432V25.74h24.336v10.8c1.728-3.744 4.464-6.768 8.064-9.36 3.6-2.304 7.92-3.6 12.672-3.6s9.216 1.008 13.536 3.168v21.456l-13.392 1.008v-6.624c0-1.872-.432-3.168-1.44-3.6s-2.304-.72-3.888-.72c-3.888 0-6.912 1.44-9.504 4.032-2.304 2.736-3.6 6.336-3.6 10.512V86.22l12.528.576v11.376h-38.592V87.228l4.752-.432c1.44-.144 2.448-.576 3.168-1.152.72-.72 1.008-1.872 1.008-3.6zm93.744-58.464c7.2 0 12.96 1.728 17.136 5.184 4.176 3.6 6.336 8.496 6.336 14.832 0 4.176-.864 7.92-2.736 11.088-1.872 3.312-4.032 5.76-6.768 7.632s-5.904 3.312-9.792 4.464c-6.48 1.872-13.68 2.88-21.744 2.88.288 5.04 1.872 9.216 4.752 12.24 2.88 3.168 7.344 4.752 13.248 4.752s11.952-2.16 17.856-6.336l5.472 11.664c-1.872 1.728-5.184 3.456-9.648 5.328-4.608 1.872-9.792 2.736-15.696 2.736-11.664 0-20.304-3.312-25.776-9.792s-8.208-15.264-8.208-26.64 3.168-20.88 9.36-28.512 14.976-11.52 26.208-11.52zm-6.624 32.832c3.6-.576 6.768-2.016 9.792-4.176s4.464-4.608 4.464-7.632c0-5.904-2.88-8.784-8.64-8.784-5.328 0-9.504 2.16-12.384 6.336-2.88 4.32-4.464 9.504-4.752 15.408 4.176-.144 8.064-.432 11.52-1.152zm77.904-19.728c-2.304-.864-5.04-1.296-8.352-1.296s-5.904.72-7.776 2.16c-2.016 1.584-3.024 3.312-3.024 5.472s.432 3.888 1.152 5.184c.576 1.152 1.728 2.16 3.312 3.024 2.448 1.296 5.328 2.304 8.64 3.168l7.488 2.16c1.584.576 3.744 1.44 6.048 2.736 2.592 1.296 4.32 2.592 5.616 4.032 3.312 3.6 5.04 8.064 5.04 13.68 0 7.2-2.592 12.816-7.776 16.992-5.328 4.032-11.952 6.048-20.016 6.048-11.664 0-20.592-1.44-26.496-4.464V75.564l12.96-1.008v6.912c0 4.176 4.032 6.336 12.096 6.336s12.096-2.88 12.096-8.784c0-2.16-.72-3.888-2.016-5.184-1.44-1.296-2.88-2.304-4.176-2.736s-3.024-1.008-4.752-1.44c-1.872-.432-3.744-1.008-5.472-1.44-1.872-.432-3.744-1.152-5.76-2.016-2.16-.72-4.464-1.872-6.912-3.456-4.896-3.168-7.344-8.496-7.344-15.984 0-7.344 2.592-13.104 7.92-17.136s11.952-6.048 20.016-6.048c7.92 0 15.84 1.872 23.76 5.76v17.28l-12.96 1.008V41.58c0-2.448-1.152-4.032-3.312-4.896z"/></svg>